<svg width="154" height="48" viewBox="0 0 154 48" fill="none" xmlns="http://www.w3.org/2000/svg">
<path d="M42.1668 26.4583C41.6561 21.072 40.4918 13.8799 39.1937 11.9942C37.3203 9.26564 32.7368 7.70756 28.0702 7.44148C28.0333 7.39687 27.998 7.35073 27.9595 7.30766C24.6834 3.38709 20.9566 1.76749 18.8279 2.13202C16.9438 2.4504 16.5362 3.66548 17.2375 7.56298C17.3021 7.92136 17.3437 8.31203 17.3667 8.72577C13.7984 9.85011 10.8468 11.6712 9.67786 14.1414C8.73809 16.1363 8.42894 21.2673 8.85652 28.0579C9.13338 32.4661 9.37947 39.1829 12.6417 42.7635C15.7933 46.2242 21.9964 46.3396 27.1059 45.8858C31.9862 45.4536 38.2923 43.9755 40.5918 40.1949C43.2311 35.8514 42.4359 29.3099 42.1668 26.4583Z" fill="#97DF0D"/>
<path d="M34.6178 28.2694C32.726 27.7434 31.0494 28.4955 29.2437 29.5768C27.438 30.6581 24.4864 31.0887 22.4439 30.5719C20.4013 30.0551 18.5833 29.8075 16.916 30.8534C15.2503 31.8978 14.4858 33.7588 15.2995 36.2228C16.1131 38.6868 20.5982 42.6151 27.5288 41.6107C34.4594 40.5956 37.634 35.5476 37.7078 32.959C37.7816 30.3704 36.5173 28.8031 34.6255 28.2771L34.6147 28.2679L34.6178 28.2694Z" fill="black"/>
<path d="M26.1244 35.0553C31.8413 34.0881 34.5069 37.2924 35.0369 38.0298C33.3678 39.6787 30.89 41.1198 27.5287 41.6121C23.963 42.1288 21.0448 41.3397 18.9407 40.1162C19.5697 38.6823 21.3854 35.8664 26.126 35.0644L26.1244 35.0553Z" fill="#FF9E9E"/>
<path d="M32.0799 36.2027C33.1489 35.3953 34.6593 35.6152 35.4652 36.6765L35.4621 36.6826L35.8253 37.1639C34.1924 39.1541 31.4672 41.0337 27.5286 41.6106C23.4526 42.2013 20.2228 41.0856 18.0879 39.5653L18.1663 39.3328C18.5908 38.0716 19.9614 37.3841 21.2241 37.807C22.0008 38.067 22.5577 38.6853 22.7745 39.4159C23.1744 38.7253 23.905 38.2469 24.7617 38.2115C25.7276 38.1716 26.5828 38.7068 27.0011 39.5112C27.1426 38.6146 27.7809 37.8347 28.7083 37.5655C29.5989 37.3071 30.5187 37.5856 31.1216 38.21C31.0986 37.4518 31.4309 36.6949 32.0799 36.2027Z" fill="white"/>
<path d="M11.7665 7.28273C13.2369 7.03818 14.2258 5.64314 13.9798 4.17273C13.7352 2.70233 12.3402 1.71334 10.8698 1.95943C9.39935 2.20399 8.41036 3.59903 8.65645 5.06943C8.90101 6.53984 10.296 7.52883 11.7665 7.28273Z" fill="#97DF0D"/>
<path d="M17.8865 27.1864C17.2743 27.1864 16.7314 26.7357 16.6314 26.1082C16.5237 25.4191 17.0005 24.7685 17.6942 24.6578C18.3833 24.5501 19.0339 25.0269 19.1446 25.7206C19.2523 26.4096 18.7755 27.0602 18.0818 27.171C18.0157 27.1817 17.9495 27.1864 17.8865 27.1864Z" fill="black"/>
<path d="M32.7106 25.7098C32.0984 25.7098 31.5555 25.2591 31.4571 24.6316C31.3494 23.9425 31.8262 23.2919 32.5199 23.1812C33.2089 23.0735 33.8596 23.5503 33.9703 24.244C34.078 24.9331 33.6012 25.5837 32.9075 25.6944C32.8398 25.7052 32.7752 25.7098 32.7106 25.7098Z" fill="black"/>
<path d="M24.4003 11.5844C30.3373 11.2229 37.9555 12.3919 40.6502 15.8126C40.8271 16.0202 40.9625 16.2572 41.0471 16.514C41.7453 18.6058 42.1822 22.1019 42.2176 23.7184C42.2206 23.8475 42.1452 23.9629 42.0253 24.0122C41.9054 24.0614 41.7715 24.0321 41.6823 23.9383C38.0893 20.0547 30.3912 19.1979 24.3835 19.6916C17.048 20.2947 10.922 22.7704 8.74733 26.0069C8.77582 26.6715 8.81219 27.3556 8.85638 28.0573C8.87538 28.3599 8.89436 28.6734 8.91406 28.9959C7.83303 29.5654 6.60325 29.8491 5.28349 29.8491C3.94999 29.8491 2.52722 29.56 1.07374 28.9787L1.0045 28.9509L1.02913 28.8816C1.04435 28.8394 2.45155 24.9418 4.85436 23.2353C4.87206 23.2228 4.88993 23.2105 4.90768 23.1981C2.69459 22.0151 1.13902 19.6481 0.524748 16.5279L0.509277 16.454L0.581675 16.437C0.629036 16.426 4.66311 15.4906 7.39835 16.5831C7.96282 16.8088 8.47786 17.0892 8.93839 17.4151C12.1225 14.1116 17.7398 11.9899 24.4003 11.5844Z" fill="black"/>
<path d="M64.7 32.28C63.1533 32.28 61.7667 31.94 60.54 31.26C59.3133 30.5667 58.3533 29.6067 57.66 28.38C56.9667 27.1533 56.62 25.76 56.62 24.2C56.62 22.64 56.9667 21.2467 57.66 20.02C58.3533 18.7933 59.3133 17.84 60.54 17.16C61.7667 16.4667 63.1533 16.12 64.7 16.12C65.2333 16.12 65.7667 16.1667 66.3 16.26C66.8467 16.34 67.3533 16.48 67.82 16.68L68.08 20.6C67.16 20.2133 66.22 20.02 65.26 20.02C64.46 20.02 63.72 20.1733 63.04 20.48C62.3733 20.7867 61.8333 21.2533 61.42 21.88C61.02 22.5067 60.82 23.28 60.82 24.2C60.82 25.1067 61.02 25.8733 61.42 26.5C61.82 27.1267 62.3533 27.5933 63.02 27.9C63.6867 28.2067 64.4267 28.36 65.24 28.36C65.7067 28.36 66.1933 28.3133 66.7 28.22C67.2067 28.1133 67.6733 27.9667 68.1 27.78L67.84 31.7C66.92 32.0867 65.8733 32.28 64.7 32.28ZM69.7939 15.92H73.5939V32H69.7939V15.92ZM79.0928 32.28C78.3195 32.28 77.6261 32.1133 77.0128 31.78C76.3995 31.4333 75.9128 30.96 75.5528 30.36C75.2061 29.76 75.0328 29.0867 75.0328 28.34C75.0328 27.5667 75.2128 26.8867 75.5728 26.3C75.9328 25.7 76.4261 25.2333 77.0528 24.9C77.6795 24.5667 78.3795 24.4 79.1528 24.4C79.9528 24.4 80.6661 24.5733 81.2928 24.92C81.9195 25.2667 82.3728 25.76 82.6528 26.4L81.9528 26.62V25.56C81.9528 24.6933 81.7061 24.0733 81.2128 23.7C80.7328 23.3133 80.0595 23.12 79.1928 23.12C78.5928 23.12 78.0128 23.1867 77.4528 23.32C76.9061 23.4533 76.3461 23.6467 75.7728 23.9L75.9728 20.96C76.5328 20.72 77.1661 20.54 77.8728 20.42C78.5795 20.3 79.3061 20.24 80.0528 20.24C81.0795 20.24 82.0195 20.4133 82.8728 20.76C83.7395 21.0933 84.4328 21.64 84.9528 22.4C85.4861 23.1467 85.7528 24.1067 85.7528 25.28V32H82.6328L82.2328 29.5L82.8328 30.16C82.5261 30.8 82.0328 31.3133 81.3528 31.7C80.6728 32.0867 79.9195 32.28 79.0928 32.28ZM80.4128 29.64C80.7061 29.64 80.9728 29.58 81.2128 29.46C81.4528 29.34 81.6328 29.18 81.7528 28.98C81.8861 28.7667 81.9528 28.54 81.9528 28.3C81.9528 28.06 81.8861 27.84 81.7528 27.64C81.6328 27.4267 81.4528 27.26 81.2128 27.14C80.9728 27.02 80.7061 26.96 80.4128 26.96C80.1195 26.96 79.8595 27.02 79.6328 27.14C79.4061 27.2467 79.2261 27.4067 79.0928 27.62C78.9728 27.82 78.9128 28.0467 78.9128 28.3C78.9128 28.5533 78.9728 28.7867 79.0928 29C79.2261 29.2 79.4061 29.36 79.6328 29.48C79.8595 29.5867 80.1195 29.64 80.4128 29.64ZM91.2441 32.28C90.6441 32.28 90.0241 32.2133 89.3841 32.08C88.7441 31.96 88.1374 31.78 87.5641 31.54L87.3641 28.24C87.8441 28.4933 88.3841 28.6933 88.9841 28.84C89.5841 28.9867 90.1574 29.06 90.7041 29.06C91.1307 29.06 91.4307 29.0133 91.6041 28.92C91.7907 28.8267 91.8841 28.7 91.8841 28.54C91.8841 28.34 91.7774 28.1733 91.5641 28.04C91.3507 27.9067 91.0041 27.74 90.5241 27.54C90.1907 27.4067 89.8774 27.2667 89.5841 27.12C89.1441 26.9067 88.7574 26.6667 88.4241 26.4C88.0907 26.12 87.8174 25.7733 87.6041 25.36C87.3907 24.9467 87.2841 24.4533 87.2841 23.88C87.2841 22.7733 87.6774 21.8933 88.4641 21.24C89.2641 20.5733 90.3374 20.24 91.6841 20.24C92.2441 20.24 92.8041 20.3 93.3641 20.42C93.9374 20.54 94.4974 20.7267 95.0441 20.98L95.3241 24.16C94.8441 23.9467 94.3374 23.78 93.8041 23.66C93.2707 23.54 92.7774 23.48 92.3241 23.48C91.9374 23.48 91.6441 23.5267 91.4441 23.62C91.2574 23.7 91.1641 23.82 91.1641 23.98C91.1641 24.1667 91.2707 24.3333 91.4841 24.48C91.6974 24.6133 92.0507 24.7867 92.5441 25C93.0107 25.2 93.3107 25.3333 93.4441 25.4C93.8841 25.6133 94.2707 25.8533 94.6041 26.12C94.9374 26.3733 95.2107 26.7133 95.4241 27.14C95.6507 27.5533 95.7641 28.06 95.7641 28.66C95.7641 29.86 95.3374 30.7667 94.4841 31.38C93.6307 31.98 92.5507 32.28 91.2441 32.28ZM100.795 32.28C100.195 32.28 99.5748 32.2133 98.9348 32.08C98.2948 31.96 97.6882 31.78 97.1148 31.54L96.9148 28.24C97.3948 28.4933 97.9348 28.6933 98.5348 28.84C99.1348 28.9867 99.7082 29.06 100.255 29.06C100.682 29.06 100.982 29.0133 101.155 28.92C101.342 28.8267 101.435 28.7 101.435 28.54C101.435 28.34 101.328 28.1733 101.115 28.04C100.902 27.9067 100.555 27.74 100.075 27.54C99.7415 27.4067 99.4282 27.2667 99.1348 27.12C98.6948 26.9067 98.3082 26.6667 97.9748 26.4C97.6415 26.12 97.3682 25.7733 97.1548 25.36C96.9415 24.9467 96.8348 24.4533 96.8348 23.88C96.8348 22.7733 97.2282 21.8933 98.0148 21.24C98.8148 20.5733 99.8882 20.24 101.235 20.24C101.795 20.24 102.355 20.3 102.915 20.42C103.488 20.54 104.048 20.7267 104.595 20.98L104.875 24.16C104.395 23.9467 103.888 23.78 103.355 23.66C102.822 23.54 102.328 23.48 101.875 23.48C101.488 23.48 101.195 23.5267 100.995 23.62C100.808 23.7 100.715 23.82 100.715 23.98C100.715 24.1667 100.822 24.3333 101.035 24.48C101.248 24.6133 101.602 24.7867 102.095 25C102.562 25.2 102.862 25.3333 102.995 25.4C103.435 25.6133 103.822 25.8533 104.155 26.12C104.488 26.3733 104.762 26.7133 104.975 27.14C105.202 27.5533 105.315 28.06 105.315 28.66C105.315 29.86 104.888 30.7667 104.035 31.38C103.182 31.98 102.102 32.28 100.795 32.28ZM107.006 16.4H112.106C113.799 16.4 115.286 16.7267 116.566 17.38C117.846 18.02 118.839 18.9333 119.546 20.12C120.252 21.2933 120.606 22.6533 120.606 24.2C120.606 25.7467 120.252 27.1133 119.546 28.3C118.839 29.4733 117.846 30.3867 116.566 31.04C115.286 31.68 113.799 32 112.106 32H107.006V16.4ZM112.166 28.32C113.072 28.32 113.839 28.16 114.466 27.84C115.106 27.52 115.592 27.0533 115.926 26.44C116.259 25.8267 116.426 25.08 116.426 24.2C116.426 23.3333 116.259 22.5933 115.926 21.98C115.606 21.3667 115.126 20.9 114.486 20.58C113.846 20.2467 113.072 20.08 112.166 20.08H111.006V28.32H112.166ZM127.934 32.28C126.761 32.28 125.701 32.02 124.754 31.5C123.821 30.98 123.088 30.2667 122.554 29.36C122.021 28.44 121.754 27.4067 121.754 26.26C121.754 25.1133 122.021 24.0867 122.554 23.18C123.088 22.26 123.821 21.54 124.754 21.02C125.701 20.5 126.761 20.24 127.934 20.24C129.108 20.24 130.161 20.5 131.094 21.02C132.041 21.54 132.781 22.26 133.314 23.18C133.848 24.0867 134.114 25.1133 134.114 26.26C134.114 27.4067 133.848 28.44 133.314 29.36C132.781 30.2667 132.041 30.98 131.094 31.5C130.161 32.02 129.108 32.28 127.934 32.28ZM127.934 28.64C128.361 28.64 128.748 28.5467 129.094 28.36C129.441 28.16 129.714 27.88 129.914 27.52C130.128 27.16 130.234 26.74 130.234 26.26C130.234 25.78 130.128 25.36 129.914 25C129.714 24.64 129.441 24.3667 129.094 24.18C128.748 23.98 128.361 23.88 127.934 23.88C127.508 23.88 127.121 23.98 126.774 24.18C126.428 24.3667 126.148 24.64 125.934 25C125.734 25.36 125.634 25.78 125.634 26.26C125.634 26.74 125.734 27.16 125.934 27.52C126.148 27.88 126.428 28.16 126.774 28.36C127.121 28.5467 127.508 28.64 127.934 28.64ZM135.593 36.68C134.873 36.68 134.246 36.56 133.713 36.32V33.26C133.966 33.34 134.233 33.38 134.513 33.38C134.886 33.38 135.173 33.2733 135.373 33.06C135.573 32.86 135.673 32.5667 135.673 32.18V20.52H139.473V32.58C139.473 33.8733 139.119 34.88 138.413 35.6C137.719 36.32 136.779 36.68 135.593 36.68ZM137.613 19.52C137.173 19.52 136.779 19.4267 136.433 19.24C136.086 19.04 135.813 18.7667 135.613 18.42C135.413 18.0733 135.313 17.6867 135.313 17.26C135.313 16.6067 135.526 16.0667 135.953 15.64C136.393 15.2133 136.946 15 137.613 15C138.053 15 138.446 15.1 138.793 15.3C139.139 15.4867 139.413 15.7533 139.613 16.1C139.813 16.4467 139.913 16.8333 139.913 17.26C139.913 17.9133 139.693 18.4533 139.253 18.88C138.826 19.3067 138.279 19.52 137.613 19.52ZM147.212 32.28C146.038 32.28 144.978 32.02 144.032 31.5C143.098 30.98 142.365 30.2667 141.832 29.36C141.298 28.44 141.032 27.4067 141.032 26.26C141.032 25.1133 141.298 24.0867 141.832 23.18C142.365 22.26 143.098 21.54 144.032 21.02C144.978 20.5 146.038 20.24 147.212 20.24C148.385 20.24 149.438 20.5 150.372 21.02C151.318 21.54 152.058 22.26 152.592 23.18C153.125 24.0867 153.392 25.1133 153.392 26.26C153.392 27.4067 153.125 28.44 152.592 29.36C152.058 30.2667 151.318 30.98 150.372 31.5C149.438 32.02 148.385 32.28 147.212 32.28ZM147.212 28.64C147.638 28.64 148.025 28.5467 148.372 28.36C148.718 28.16 148.992 27.88 149.192 27.52C149.405 27.16 149.512 26.74 149.512 26.26C149.512 25.78 149.405 25.36 149.192 25C148.992 24.64 148.718 24.3667 148.372 24.18C148.025 23.98 147.638 23.88 147.212 23.88C146.785 23.88 146.398 23.98 146.052 24.18C145.705 24.3667 145.425 24.64 145.212 25C145.012 25.36 144.912 25.78 144.912 26.26C144.912 26.74 145.012 27.16 145.212 27.52C145.425 27.88 145.705 28.16 146.052 28.36C146.398 28.5467 146.785 28.64 147.212 28.64Z" fill="#171717"/>
</svg>
